<mxfile host="app.diagrams.net" modified="2023-10-01T09:52:08.016Z" agent="Mozilla/5.0 (Windows NT 10.0; Win64; x64) AppleWebKit/537.36 (KHTML, like Gecko) Chrome/117.0.0.0 Safari/537.36" version="21.8.2" etag="_b2h-s3rSMtMhApdc8rq" type="github">
  <diagram name="Page-1" id="Z8a947xCfgXzP4bbAFFY">
    <mxGraphModel>
      <root>
        <mxCell id="0" />
        <mxCell id="1" parent="0" />
      </root>
    </mxGraphModel>
  </diagram>
</mxfile>
